<svg xmlns="http://www.w3.org/2000/svg" xmlns:xlink="http://www.w3.org/1999/xlink" width="768pt" height="1623pt" viewBox="0.00 0.00 768.03 1623.10">
<g id="graph0" class="graph" transform="scale(1 1) rotate(0) translate(4 1619.1)">
<title>graphname</title>
<polygon fill="#ffffff" stroke="transparent" points="-4,4 -4,-1619.1 764.0279,-1619.1 764.0279,4 -4,4"/>
<!-- United Newsserver  -->
<g id="node1" class="node">
<title>United Newsserver </title>
<polygon fill="#6c1494" stroke="#6c1494" points="138.1725,-72 -.0575,-72 -.0575,-45 138.1725,-45 138.1725,-72"/>
<text text-anchor="middle" x="69.0575" y="-54.3" font-family="Helvetica,sans-Serif" font-size="14.00" fill="#ffffff">United Newsserver </text>
</g>
<!-- Elbracht -->
<g id="node2" class="node">
<title>Elbracht</title>
<polygon fill="#6c1494" stroke="#6c1494" points="291.4188,-72 223.7326,-72 223.7326,-45 291.4188,-45 291.4188,-72"/>
<text text-anchor="middle" x="257.5757" y="-54.3" font-family="Helvetica,sans-Serif" font-size="14.00" fill="#ffffff">Elbracht</text>
</g>
<!-- United Newsserver &#45;&#45;Elbracht -->
<g id="edge1" class="edge">
<title>United Newsserver --Elbracht</title>
<path fill="none" stroke="#000000" d="M138.1843,-58.5C167.3976,-58.5 200.0855,-58.5 223.8622,-58.5"/>
</g>
<!-- United Newsserver -->
<g id="node3" class="node">
<title>United Newsserver</title>
<polygon fill="#6c1494" stroke="#6c1494" points="525.9347,-72 391.4855,-72 391.4855,-45 525.9347,-45 525.9347,-72"/>
<text text-anchor="middle" x="458.7101" y="-54.3" font-family="Helvetica,sans-Serif" font-size="14.00" fill="#ffffff">United Newsserver</text>
</g>
<!-- Elbracht&#45;&#45;United Newsserver -->
<g id="edge2" class="edge">
<title>Elbracht--United Newsserver</title>
<path fill="none" stroke="#000000" d="M291.6954,-58.5C318.9306,-58.5 357.9344,-58.5 391.4009,-58.5"/>
</g>
<!-- Premium News  -->
<g id="node4" class="node">
<title>Premium News </title>
<polygon fill="#6c1494" stroke="#6c1494" points="515.9775,-27 401.4426,-27 401.4426,0 515.9775,0 515.9775,-27"/>
<text text-anchor="middle" x="458.7101" y="-9.3" font-family="Helvetica,sans-Serif" font-size="14.00" fill="#ffffff">Premium News </text>
</g>
<!-- Elbracht&#45;&#45;Premium News  -->
<g id="edge3" class="edge">
<title>Elbracht--Premium News </title>
<path fill="none" stroke="#000000" d="M291.6954,-50.8664C321.6205,-44.1712 365.7537,-34.2972 401.1382,-26.3806"/>
</g>
<!-- Newscene  -->
<g id="node5" class="node">
<title>Newscene </title>
<polygon fill="#ec2efa" stroke="#ec2efa" points="111.792,-117 26.323,-117 26.323,-90 111.792,-90 111.792,-117"/>
<text text-anchor="middle" x="69.0575" y="-99.3" font-family="Helvetica,sans-Serif" font-size="14.00" fill="#ffffff">Newscene </text>
</g>
<!-- Novia / HW Media -->
<g id="node6" class="node">
<title>Novia / HW Media</title>
<polygon fill="#ec2efa" stroke="#ec2efa" points="321.8529,-117 193.2985,-117 193.2985,-90 321.8529,-90 321.8529,-117"/>
<text text-anchor="middle" x="257.5757" y="-99.3" font-family="Helvetica,sans-Serif" font-size="14.00" fill="#ffffff">Novia / HW Media</text>
</g>
<!-- Newscene &#45;&#45;Novia / HW Media -->
<g id="edge4" class="edge">
<title>Newscene --Novia / HW Media</title>
<path fill="none" stroke="#000000" d="M111.8352,-103.5C135.8434,-103.5 166.2792,-103.5 193.1207,-103.5"/>
</g>
<!-- Newscene -->
<g id="node7" class="node">
<title>Newscene</title>
<polygon fill="#ec2efa" stroke="#ec2efa" points="499.5544,-117 417.8657,-117 417.8657,-90 499.5544,-90 499.5544,-117"/>
<text text-anchor="middle" x="458.7101" y="-99.3" font-family="Helvetica,sans-Serif" font-size="14.00" fill="#ffffff">Newscene</text>
</g>
<!-- Novia / HW Media&#45;&#45;Newscene -->
<g id="edge5" class="edge">
<title>Novia / HW Media--Newscene</title>
<path fill="none" stroke="#000000" d="M322.0458,-103.5C353.5296,-103.5 390.4555,-103.5 417.982,-103.5"/>
</g>
<!-- Premium News -->
<g id="node8" class="node">
<title>Premium News</title>
<polygon fill="#ec2efa" stroke="#ec2efa" points="723.5825,-117 612.8291,-117 612.8291,-90 723.5825,-90 723.5825,-117"/>
<text text-anchor="middle" x="668.2058" y="-99.3" font-family="Helvetica,sans-Serif" font-size="14.00" fill="#ffffff">Premium News</text>
</g>
<!-- Newscene&#45;&#45;Premium News -->
<g id="edge6" class="edge">
<title>Newscene--Premium News</title>
<path fill="none" stroke="#000000" d="M499.6003,-103.5C531.87,-103.5 577.2149,-103.5 612.7531,-103.5"/>
</g>
<!-- Giganews  -->
<g id="node9" class="node">
<title>Giganews </title>
<polygon fill="#3098d8" stroke="#3098d8" points="110.1824,-319 27.9326,-319 27.9326,-292 110.1824,-292 110.1824,-319"/>
<text text-anchor="middle" x="69.0575" y="-301.3" font-family="Helvetica,sans-Serif" font-size="14.00" fill="#ffffff">Giganews </text>
</g>
<!-- Giganews -->
<g id="node10" class="node">
<title>Giganews</title>
<polygon fill="#3098d8" stroke="#3098d8" points="296.8103,-342 218.3411,-342 218.3411,-315 296.8103,-315 296.8103,-342"/>
<text text-anchor="middle" x="257.5757" y="-324.3" font-family="Helvetica,sans-Serif" font-size="14.00" fill="#ffffff">Giganews</text>
</g>
<!-- Giganews &#45;&#45;Giganews -->
<g id="edge7" class="edge">
<title>Giganews --Giganews</title>
<path fill="none" stroke="#000000" d="M110.4286,-310.5474C142.5108,-314.4616 186.6787,-319.8503 218.2354,-323.7003"/>
</g>
<!-- Supernews -->
<g id="node12" class="node">
<title>Supernews</title>
<polygon fill="#3098d8" stroke="#3098d8" points="300.5925,-297 214.5589,-297 214.5589,-270 300.5925,-270 300.5925,-297"/>
<text text-anchor="middle" x="257.5757" y="-279.3" font-family="Helvetica,sans-Serif" font-size="14.00" fill="#ffffff">Supernews</text>
</g>
<!-- Giganews &#45;&#45;Supernews -->
<g id="edge9" class="edge">
<title>Giganews --Supernews</title>
<path fill="none" stroke="#000000" d="M110.4286,-300.672C141.2101,-297.0798 183.1174,-292.1893 214.3369,-288.546"/>
</g>
<!-- PowerUsenet\nRhinoNewsgroups\nUsenet.net -->
<g id="node11" class="node">
<title>PowerUsenet\nRhinoNewsgroups\nUsenet.net</title>
<polygon fill="#3098d8" stroke="#3098d8" points="524.0583,-357.9014 393.3618,-357.9014 393.3618,-299.0986 524.0583,-299.0986 524.0583,-357.9014"/>
<text text-anchor="middle" x="458.7101" y="-341.1" font-family="Helvetica,sans-Serif" font-size="14.00" fill="#ffffff">PowerUsenet</text>
<text text-anchor="middle" x="458.7101" y="-324.3" font-family="Helvetica,sans-Serif" font-size="14.00" fill="#ffffff">RhinoNewsgroups</text>
<text text-anchor="middle" x="458.7101" y="-307.5" font-family="Helvetica,sans-Serif" font-size="14.00" fill="#ffffff">Usenet.net</text>
</g>
<!-- Giganews&#45;&#45;PowerUsenet\nRhinoNewsgroups\nUsenet.net -->
<g id="edge8" class="edge">
<title>Giganews--PowerUsenet\nRhinoNewsgroups\nUsenet.net</title>
<path fill="none" stroke="#000000" d="M296.8339,-328.5C324.2716,-328.5 361.555,-328.5 393.4249,-328.5"/>
</g>
<!-- NewsGroupDirect  -->
<g id="node13" class="node">
<title>NewsGroupDirect </title>
<polygon fill="#3098d8" stroke="#3098d8" points="524.0429,-252 393.3772,-252 393.3772,-225 524.0429,-225 524.0429,-252"/>
<text text-anchor="middle" x="458.7101" y="-234.3" font-family="Helvetica,sans-Serif" font-size="14.00" fill="#ffffff">NewsGroupDirect </text>
</g>
<!-- Supernews&#45;&#45;NewsGroupDirect  -->
<g id="edge10" class="edge">
<title>Supernews--NewsGroupDirect </title>
<path fill="none" stroke="#000000" d="M300.7241,-273.8464C329.1197,-267.4934 366.7,-259.0855 398.084,-252.0639"/>
</g>
<!-- Usenet.Farm  -->
<g id="node14" class="node">
<title>Usenet.Farm </title>
<polygon fill="#368a8b" stroke="#368a8b" points="119.3403,-409 18.7747,-409 18.7747,-382 119.3403,-382 119.3403,-409"/>
<text text-anchor="middle" x="69.0575" y="-391.3" font-family="Helvetica,sans-Serif" font-size="14.00" fill="#ffffff">Usenet.Farm </text>
</g>
<!-- Its Hosted -->
<g id="node15" class="node">
<title>Its Hosted</title>
<polygon fill="#368a8b" stroke="#368a8b" points="322.1096,-395.5 289.8426,-416.0013 225.3088,-416.0013 193.0418,-395.5 225.3088,-374.9987 289.8426,-374.9987 322.1096,-395.5"/>
<text text-anchor="middle" x="257.5757" y="-391.3" font-family="Helvetica,sans-Serif" font-size="14.00" fill="#ffffff">Its Hosted</text>
</g>
<!-- Usenet.Farm &#45;&#45;Its Hosted -->
<g id="edge11" class="edge">
<title>Usenet.Farm --Its Hosted</title>
<path fill="none" stroke="#000000" d="M119.5769,-395.5C142.1534,-395.5 169.0314,-395.5 193.0425,-395.5"/>
</g>
<!-- Usenet.Farm -->
<g id="node16" class="node">
<title>Usenet.Farm</title>
<polygon fill="#368a8b" stroke="#368a8b" points="537.9342,-395.5 498.3221,-416.0013 419.098,-416.0013 379.4859,-395.5 419.098,-374.9987 498.3221,-374.9987 537.9342,-395.5"/>
<text text-anchor="middle" x="458.7101" y="-391.3" font-family="Helvetica,sans-Serif" font-size="14.00" fill="#ffffff">Usenet.Farm</text>
</g>
<!-- Its Hosted&#45;&#45;Usenet.Farm -->
<g id="edge12" class="edge">
<title>Its Hosted--Usenet.Farm</title>
<path fill="none" stroke="#000000" d="M322.323,-395.5C340.4677,-395.5 360.4019,-395.5 379.2931,-395.5"/>
</g>
<!-- UsenetNews\nFrugalUsenet -->
<g id="node17" class="node">
<title>UsenetNews\nFrugalUsenet</title>
<polygon fill="#368a8b" stroke="#368a8b" points="718.2184,-416.1019 618.1932,-416.1019 618.1932,-374.8981 718.2184,-374.8981 718.2184,-416.1019"/>
<text text-anchor="middle" x="668.2058" y="-399.7" font-family="Helvetica,sans-Serif" font-size="14.00" fill="#ffffff">UsenetNews</text>
<text text-anchor="middle" x="668.2058" y="-382.9" font-family="Helvetica,sans-Serif" font-size="14.00" fill="#ffffff">FrugalUsenet</text>
</g>
<!-- Usenet.Farm&#45;&#45;UsenetNews\nFrugalUsenet -->
<g id="edge13" class="edge">
<title>Usenet.Farm--UsenetNews\nFrugalUsenet</title>
<path fill="none" stroke="#000000" d="M537.9114,-395.5C564.7933,-395.5 594.0658,-395.5 618.043,-395.5"/>
</g>
<!-- Uzo Reto -->
<g id="node18" class="node">
<title>Uzo Reto</title>
<polygon fill="#f6b72d" stroke="#f6b72d" points="106.4005,-469 31.7145,-469 31.7145,-442 106.4005,-442 106.4005,-469"/>
<text text-anchor="middle" x="69.0575" y="-451.3" font-family="Helvetica,sans-Serif" font-size="14.00" fill="#ffffff">Uzo Reto</text>
</g>
<!-- ViperNews -->
<g id="node19" class="node">
<title>ViperNews</title>
<polygon fill="#f6b72d" stroke="#f6b72d" points="325.7003,-455.5 291.638,-476.0013 223.5134,-476.0013 189.4511,-455.5 223.5134,-434.9987 291.638,-434.9987 325.7003,-455.5"/>
<text text-anchor="middle" x="257.5757" y="-451.3" font-family="Helvetica,sans-Serif" font-size="14.00" fill="#ffffff">ViperNews</text>
</g>
<!-- Uzo Reto&#45;&#45;ViperNews -->
<g id="edge14" class="edge">
<title>Uzo Reto--ViperNews</title>
<path fill="none" stroke="#000000" d="M106.3026,-455.5C129.9096,-455.5 161.1591,-455.5 189.1248,-455.5"/>
</g>
<!-- ViperNews  -->
<g id="node20" class="node">
<title>ViperNews </title>
<polygon fill="#f6b72d" stroke="#f6b72d" points="530.1874,-455.5 494.4487,-476.0013 422.9714,-476.0013 387.2327,-455.5 422.9714,-434.9987 494.4487,-434.9987 530.1874,-455.5"/>
<text text-anchor="middle" x="458.7101" y="-451.3" font-family="Helvetica,sans-Serif" font-size="14.00" fill="#ffffff">ViperNews </text>
</g>
<!-- ViperNews&#45;&#45;ViperNews  -->
<g id="edge15" class="edge">
<title>ViperNews--ViperNews </title>
<path fill="none" stroke="#000000" d="M325.9513,-455.5C345.6534,-455.5 367.1983,-455.5 387.0912,-455.5"/>
</g>
<!--  UsenetNews\nNovaUsenet -->
<g id="node21" class="node">
<title> UsenetNews\nNovaUsenet</title>
<polygon fill="#f6b72d" stroke="#f6b72d" points="717.9375,-476.1019 618.4741,-476.1019 618.4741,-434.8981 717.9375,-434.8981 717.9375,-476.1019"/>
<text text-anchor="middle" x="668.2058" y="-459.7" font-family="Helvetica,sans-Serif" font-size="14.00" fill="#ffffff"> UsenetNews</text>
<text text-anchor="middle" x="668.2058" y="-442.9" font-family="Helvetica,sans-Serif" font-size="14.00" fill="#ffffff">NovaUsenet</text>
</g>
<!-- ViperNews &#45;&#45; UsenetNews\nNovaUsenet -->
<g id="edge16" class="edge">
<title>ViperNews -- UsenetNews\nNovaUsenet</title>
<path fill="none" stroke="#000000" d="M530.2207,-455.5C559.2614,-455.5 592.1047,-455.5 618.4617,-455.5"/>
</g>
<!-- UsenetExpress -->
<g id="node22" class="node">
<title>UsenetExpress</title>
<polygon fill="#2a7325" stroke="#2a7325" points="124.4649,-229 13.6501,-229 13.6501,-202 124.4649,-202 124.4649,-229"/>
<text text-anchor="middle" x="69.0575" y="-211.3" font-family="Helvetica,sans-Serif" font-size="14.00" fill="#ffffff">UsenetExpress</text>
</g>
<!-- UsenetExpress  -->
<g id="node23" class="node">
<title>UsenetExpress </title>
<polygon fill="#2a7325" stroke="#2a7325" points="314.8739,-207 200.2775,-207 200.2775,-180 314.8739,-180 314.8739,-207"/>
<text text-anchor="middle" x="257.5757" y="-189.3" font-family="Helvetica,sans-Serif" font-size="14.00" fill="#ffffff">UsenetExpress </text>
</g>
<!-- UsenetExpress&#45;&#45;UsenetExpress  -->
<g id="edge17" class="edge">
<title>UsenetExpress--UsenetExpress </title>
<path fill="none" stroke="#000000" d="M124.5995,-209.0183C148.3851,-206.2425 176.1517,-203.0021 200.142,-200.2025"/>
</g>
<!-- NewsGroupDirect -->
<g id="node27" class="node">
<title>NewsGroupDirect</title>
<polygon fill="#2a7325" stroke="#2a7325" points="321.0183,-252 194.1331,-252 194.1331,-225 321.0183,-225 321.0183,-252"/>
<text text-anchor="middle" x="257.5757" y="-234.3" font-family="Helvetica,sans-Serif" font-size="14.00" fill="#ffffff">NewsGroupDirect</text>
</g>
<!-- UsenetExpress&#45;&#45;NewsGroupDirect -->
<g id="edge22" class="edge">
<title>UsenetExpress--NewsGroupDirect</title>
<path fill="none" stroke="#000000" d="M124.5995,-222.2764C146.4301,-224.9398 171.6142,-228.0123 194.1544,-230.7623"/>
</g>
<!-- UsenetExpress &#45;&#45;NewsGroupDirect  -->
<g id="edge21" class="edge">
<title>UsenetExpress --NewsGroupDirect </title>
<path fill="none" stroke="#000000" d="M314.9436,-206.335C340.9529,-212.1541 371.7218,-219.038 398.1074,-224.9413"/>
</g>
<!-- UsenetExpress &#160; -->
<g id="node24" class="node">
<title>UsenetExpress  </title>
<polygon fill="#2a7325" stroke="#2a7325" points="517.8991,-207 399.5211,-207 399.5211,-180 517.8991,-180 517.8991,-207"/>
<text text-anchor="middle" x="458.7101" y="-189.3" font-family="Helvetica,sans-Serif" font-size="14.00" fill="#ffffff">UsenetExpress  </text>
</g>
<!-- UsenetExpress &#45;&#45;UsenetExpress &#160; -->
<g id="edge18" class="edge">
<title>UsenetExpress --UsenetExpress  </title>
<path fill="none" stroke="#000000" d="M314.9436,-193.5C341.4173,-193.5 372.8222,-193.5 399.5167,-193.5"/>
</g>
<!-- NewsDemon -->
<g id="node26" class="node">
<title>NewsDemon</title>
<polygon fill="#2a7325" stroke="#2a7325" points="506.8209,-162 410.5992,-162 410.5992,-135 506.8209,-135 506.8209,-162"/>
<text text-anchor="middle" x="458.7101" y="-144.3" font-family="Helvetica,sans-Serif" font-size="14.00" fill="#ffffff">NewsDemon</text>
</g>
<!-- UsenetExpress &#45;&#45;NewsDemon -->
<g id="edge20" class="edge">
<title>UsenetExpress --NewsDemon</title>
<path fill="none" stroke="#000000" d="M314.9436,-180.665C345.1329,-173.9107 381.7348,-165.7218 410.4514,-159.297"/>
</g>
<!-- UsenetNews\nUsenetPrime\n UsenetFire\nThunderNews\n theCubeNet -->
<g id="node25" class="node">
<title>UsenetNews\nUsenetPrime\n UsenetFire\nThunderNews\n theCubeNet</title>
<polygon fill="#2a7325" stroke="#2a7325" points="719.8279,-239.5 616.5837,-239.5 616.5837,-147.5 719.8279,-147.5 719.8279,-239.5"/>
<text text-anchor="middle" x="668.2058" y="-222.9" font-family="Helvetica,sans-Serif" font-size="14.00" fill="#ffffff">UsenetNews</text>
<text text-anchor="middle" x="668.2058" y="-206.1" font-family="Helvetica,sans-Serif" font-size="14.00" fill="#ffffff">UsenetPrime</text>
<text text-anchor="middle" x="668.2058" y="-189.3" font-family="Helvetica,sans-Serif" font-size="14.00" fill="#ffffff"> UsenetFire</text>
<text text-anchor="middle" x="668.2058" y="-172.5" font-family="Helvetica,sans-Serif" font-size="14.00" fill="#ffffff">ThunderNews</text>
<text text-anchor="middle" x="668.2058" y="-155.7" font-family="Helvetica,sans-Serif" font-size="14.00" fill="#ffffff"> theCubeNet</text>
</g>
<!-- UsenetExpress &#160;&#45;&#45;UsenetNews\nUsenetPrime\n UsenetFire\nThunderNews\n theCubeNet -->
<g id="edge19" class="edge">
<title>UsenetExpress  --UsenetNews\nUsenetPrime\n UsenetFire\nThunderNews\n theCubeNet</title>
<path fill="none" stroke="#000000" d="M517.9031,-193.5C548.9992,-193.5 586.7476,-193.5 616.635,-193.5"/>
</g>
<!-- NewsGroupDirect&#45;&#45;NewsGroupDirect  -->
<g id="edge23" class="edge">
<title>NewsGroupDirect--NewsGroupDirect </title>
<path fill="none" stroke="#000000" d="M320.9398,-238.5C343.9697,-238.5 370.0295,-238.5 393.2381,-238.5"/>
</g>
<!-- Abavia -->
<g id="node28" class="node">
<title>Abavia</title>
<polygon fill="#0000ff" stroke="#0000ff" points="98.3489,-790 39.7661,-790 39.7661,-763 98.3489,-763 98.3489,-790"/>
<text text-anchor="middle" x="69.0575" y="-772.3" font-family="Helvetica,sans-Serif" font-size="14.00" fill="#ffffff">Abavia</text>
</g>
<!-- Abavia  -->
<g id="node29" class="node">
<title>Abavia </title>
<polygon fill="#0000ff" stroke="#0000ff" points="288.7581,-790 226.3933,-790 226.3933,-763 288.7581,-763 288.7581,-790"/>
<text text-anchor="middle" x="257.5757" y="-772.3" font-family="Helvetica,sans-Serif" font-size="14.00" fill="#ffffff">Abavia </text>
</g>
<!-- Abavia&#45;&#45;Abavia  -->
<g id="edge24" class="edge">
<title>Abavia--Abavia </title>
<path fill="none" stroke="#000000" d="M98.5135,-776.5C133.2048,-776.5 190.5945,-776.5 226.1281,-776.5"/>
</g>
<!-- Cheapnews -->
<g id="node30" class="node">
<title>Cheapnews</title>
<polygon fill="#0000ff" stroke="#0000ff" points="503.6189,-925 413.8012,-925 413.8012,-898 503.6189,-898 503.6189,-925"/>
<text text-anchor="middle" x="458.7101" y="-907.3" font-family="Helvetica,sans-Serif" font-size="14.00" fill="#ffffff">Cheapnews</text>
</g>
<!-- Abavia &#45;&#45;Cheapnews -->
<g id="edge25" class="edge">
<title>Abavia --Cheapnews</title>
<path fill="none" stroke="#000000" d="M268.166,-790.2527C287.2796,-814.1118 329.9561,-863.1426 377.0364,-889.5 388.1841,-895.741 401.1877,-900.2809 413.4982,-903.5551"/>
</g>
<!-- EasyUsenet -->
<g id="node31" class="node">
<title>EasyUsenet</title>
<polygon fill="#0000ff" stroke="#0000ff" points="504.6754,-880 412.7447,-880 412.7447,-853 504.6754,-853 504.6754,-880"/>
<text text-anchor="middle" x="458.7101" y="-862.3" font-family="Helvetica,sans-Serif" font-size="14.00" fill="#ffffff">EasyUsenet</text>
</g>
<!-- Abavia &#45;&#45;EasyUsenet -->
<g id="edge26" class="edge">
<title>Abavia --EasyUsenet</title>
<path fill="none" stroke="#000000" d="M277.9048,-790.2156C301.0473,-805.3104 340.4009,-829.4279 377.0364,-844.5 388.3082,-849.1373 400.8563,-853.0802 412.6682,-856.2915"/>
</g>
<!-- Usenet.nl -->
<g id="node32" class="node">
<title>Usenet.nl</title>
<polygon fill="#0000ff" stroke="#0000ff" points="496.335,-835 421.0852,-835 421.0852,-808 496.335,-808 496.335,-835"/>
<text text-anchor="middle" x="458.7101" y="-817.3" font-family="Helvetica,sans-Serif" font-size="14.00" fill="#ffffff">Usenet.nl</text>
</g>
<!-- Abavia &#45;&#45;Usenet.nl -->
<g id="edge27" class="edge">
<title>Abavia --Usenet.nl</title>
<path fill="none" stroke="#000000" d="M289.0029,-783.5313C324.6901,-791.5156 382.8907,-804.5369 420.9963,-813.0623"/>
</g>
<!-- Usenet.org -->
<g id="node33" class="node">
<title>Usenet.org</title>
<polygon fill="#0000ff" stroke="#0000ff" points="501.1727,-790 416.2474,-790 416.2474,-763 501.1727,-763 501.1727,-790"/>
<text text-anchor="middle" x="458.7101" y="-772.3" font-family="Helvetica,sans-Serif" font-size="14.00" fill="#ffffff">Usenet.org</text>
</g>
<!-- Abavia &#45;&#45;Usenet.org -->
<g id="edge28" class="edge">
<title>Abavia --Usenet.org</title>
<path fill="none" stroke="#000000" d="M289.0029,-776.5C323.2537,-776.5 378.2423,-776.5 416.3004,-776.5"/>
</g>
<!-- Usenext -->
<g id="node34" class="node">
<title>Usenext</title>
<polygon fill="#0000ff" stroke="#0000ff" points="492.556,-745 424.8642,-745 424.8642,-718 492.556,-718 492.556,-745"/>
<text text-anchor="middle" x="458.7101" y="-727.3" font-family="Helvetica,sans-Serif" font-size="14.00" fill="#ffffff">Usenext</text>
</g>
<!-- Abavia &#45;&#45;Usenext -->
<g id="edge29" class="edge">
<title>Abavia --Usenext</title>
<path fill="none" stroke="#000000" d="M289.0029,-769.4688C325.9054,-761.2125 386.881,-747.5704 424.8178,-739.0828"/>
</g>
<!-- XS News / Xenna -->
<g id="node35" class="node">
<title>XS News / Xenna</title>
<polygon fill="#0000ff" stroke="#0000ff" points="521.4088,-700 396.0113,-700 396.0113,-673 521.4088,-673 521.4088,-700"/>
<text text-anchor="middle" x="458.7101" y="-682.3" font-family="Helvetica,sans-Serif" font-size="14.00" fill="#ffffff">XS News / Xenna</text>
</g>
<!-- Abavia &#45;&#45;XS News / Xenna -->
<g id="edge30" class="edge">
<title>Abavia --XS News / Xenna</title>
<path fill="none" stroke="#000000" d="M278.3884,-762.8141C301.6407,-748.0108 340.7896,-724.519 377.0364,-709.5 385.474,-706.0039 394.6151,-702.8521 403.6242,-700.083"/>
</g>
<!-- XS News -->
<g id="node36" class="node">
<title>XS News</title>
<polygon fill="#0000ff" stroke="#0000ff" points="495.271,-655 422.1492,-655 422.1492,-628 495.271,-628 495.271,-655"/>
<text text-anchor="middle" x="458.7101" y="-637.3" font-family="Helvetica,sans-Serif" font-size="14.00" fill="#ffffff">XS News</text>
</g>
<!-- Abavia &#45;&#45;XS News -->
<g id="edge31" class="edge">
<title>Abavia --XS News</title>
<path fill="none" stroke="#000000" d="M268.2252,-762.9278C287.4302,-739.3707 330.2437,-690.9102 377.0364,-664.5 390.7631,-656.7525 407.2833,-651.4634 421.8639,-647.9311"/>
</g>
<!-- aEton\nBulknews\nDreamload\nGebruikhet\nI&#45;Telligent\nNewsGrabber\nNewsXS\nSMS Usenet\nStingy Usenet\nUsenet.today\nUsenetAgency\nUsenetDiscount\nUsenetDiscounter.com\nUsenet&#45;Server\nUseNight\nXS Usenet\nZ51 -->
<g id="node37" class="node">
<title>aEton\nBulknews\nDreamload\nGebruikhet\nI-Telligent\nNewsGrabber\nNewsXS\nSMS Usenet\nStingy Usenet\nUsenet.today\nUsenetAgency\nUsenetDiscount\nUsenetDiscounter.com\nUsenet-Server\nUseNight\nXS Usenet\nZ51</title>
<polygon fill="#0000ff" stroke="#0000ff" points="746.78,-788.1003 589.6316,-788.1003 589.6316,-494.8997 746.78,-494.8997 746.78,-788.1003"/>
<text text-anchor="middle" x="668.2058" y="-771.7" font-family="Helvetica,sans-Serif" font-size="14.00" fill="#ffffff">aEton</text>
<text text-anchor="middle" x="668.2058" y="-754.9" font-family="Helvetica,sans-Serif" font-size="14.00" fill="#ffffff">Bulknews</text>
<text text-anchor="middle" x="668.2058" y="-738.1" font-family="Helvetica,sans-Serif" font-size="14.00" fill="#ffffff">Dreamload</text>
<text text-anchor="middle" x="668.2058" y="-721.3" font-family="Helvetica,sans-Serif" font-size="14.00" fill="#ffffff">Gebruikhet</text>
<text text-anchor="middle" x="668.2058" y="-704.5" font-family="Helvetica,sans-Serif" font-size="14.00" fill="#ffffff">I-Telligent</text>
<text text-anchor="middle" x="668.2058" y="-687.7" font-family="Helvetica,sans-Serif" font-size="14.00" fill="#ffffff">NewsGrabber</text>
<text text-anchor="middle" x="668.2058" y="-670.9" font-family="Helvetica,sans-Serif" font-size="14.00" fill="#ffffff">NewsXS</text>
<text text-anchor="middle" x="668.2058" y="-654.1" font-family="Helvetica,sans-Serif" font-size="14.00" fill="#ffffff">SMS Usenet</text>
<text text-anchor="middle" x="668.2058" y="-637.3" font-family="Helvetica,sans-Serif" font-size="14.00" fill="#ffffff">Stingy Usenet</text>
<text text-anchor="middle" x="668.2058" y="-620.5" font-family="Helvetica,sans-Serif" font-size="14.00" fill="#ffffff">Usenet.today</text>
<text text-anchor="middle" x="668.2058" y="-603.7" font-family="Helvetica,sans-Serif" font-size="14.00" fill="#ffffff">UsenetAgency</text>
<text text-anchor="middle" x="668.2058" y="-586.9" font-family="Helvetica,sans-Serif" font-size="14.00" fill="#ffffff">UsenetDiscount</text>
<text text-anchor="middle" x="668.2058" y="-570.1" font-family="Helvetica,sans-Serif" font-size="14.00" fill="#ffffff">UsenetDiscounter.com</text>
<text text-anchor="middle" x="668.2058" y="-553.3" font-family="Helvetica,sans-Serif" font-size="14.00" fill="#ffffff">Usenet-Server</text>
<text text-anchor="middle" x="668.2058" y="-536.5" font-family="Helvetica,sans-Serif" font-size="14.00" fill="#ffffff">UseNight</text>
<text text-anchor="middle" x="668.2058" y="-519.7" font-family="Helvetica,sans-Serif" font-size="14.00" fill="#ffffff">XS Usenet</text>
<text text-anchor="middle" x="668.2058" y="-502.9" font-family="Helvetica,sans-Serif" font-size="14.00" fill="#ffffff">Z51</text>
</g>
<!-- XS News&#45;&#45;aEton\nBulknews\nDreamload\nGebruikhet\nI&#45;Telligent\nNewsGrabber\nNewsXS\nSMS Usenet\nStingy Usenet\nUsenet.today\nUsenetAgency\nUsenetDiscount\nUsenetDiscounter.com\nUsenet&#45;Server\nUseNight\nXS Usenet\nZ51 -->
<g id="edge32" class="edge">
<title>XS News--aEton\nBulknews\nDreamload\nGebruikhet\nI-Telligent\nNewsGrabber\nNewsXS\nSMS Usenet\nStingy Usenet\nUsenet.today\nUsenetAgency\nUsenetDiscount\nUsenetDiscounter.com\nUsenet-Server\nUseNight\nXS Usenet\nZ51</title>
<path fill="none" stroke="#000000" d="M495.6815,-641.5C521.6412,-641.5 557.334,-641.5 589.5209,-641.5"/>
</g>
<!-- Omicron -->
<g id="node38" class="node">
<title>Omicron</title>
<polygon fill="#ff0000" stroke="#ff0000" points="103.4412,-1372 34.6738,-1372 34.6738,-1345 103.4412,-1345 103.4412,-1372"/>
<text text-anchor="middle" x="69.0575" y="-1354.3" font-family="Helvetica,sans-Serif" font-size="14.00" fill="#ffffff">Omicron</text>
</g>
<!-- Eweka Internet Services -->
<g id="node39" class="node">
<title>Eweka Internet Services</title>
<polygon fill="#ff0000" stroke="#ff0000" points="340.9971,-1465 174.1543,-1465 174.1543,-1438 340.9971,-1438 340.9971,-1465"/>
<text text-anchor="middle" x="257.5757" y="-1447.3" font-family="Helvetica,sans-Serif" font-size="14.00" fill="#ffffff">Eweka Internet Services</text>
</g>
<!-- Omicron&#45;&#45;Eweka Internet Services -->
<g id="edge33" class="edge">
<title>Omicron--Eweka Internet Services</title>
<path fill="none" stroke="#000000" d="M96.4697,-1372.023C132.2114,-1389.6552 194.3724,-1420.3205 230.1305,-1437.9607"/>
</g>
<!-- HW Media -->
<g id="node41" class="node">
<title>HW Media</title>
<polygon fill="#ff0000" stroke="#ff0000" points="298.4032,-1372 216.7482,-1372 216.7482,-1345 298.4032,-1345 298.4032,-1372"/>
<text text-anchor="middle" x="257.5757" y="-1354.3" font-family="Helvetica,sans-Serif" font-size="14.00" fill="#ffffff">HW Media</text>
</g>
<!-- Omicron&#45;&#45;HW Media -->
<g id="edge35" class="edge">
<title>Omicron--HW Media</title>
<path fill="none" stroke="#000000" d="M103.6346,-1358.5C135.5235,-1358.5 182.894,-1358.5 216.6555,-1358.5"/>
</g>
<!-- Base IP / HW Media -->
<g id="node48" class="node">
<title>Base IP / HW Media</title>
<polygon fill="#ff0000" stroke="#ff0000" points="328.5939,-1161 186.5575,-1161 186.5575,-1134 328.5939,-1134 328.5939,-1161"/>
<text text-anchor="middle" x="257.5757" y="-1143.3" font-family="Helvetica,sans-Serif" font-size="14.00" fill="#ffffff">Base IP / HW Media</text>
</g>
<!-- Omicron&#45;&#45;Base IP / HW Media -->
<g id="edge42" class="edge">
<title>Omicron--Base IP / HW Media</title>
<path fill="none" stroke="#000000" d="M81.1369,-1344.98C115.1059,-1306.9601 211.2097,-1199.3953 245.3529,-1161.1805"/>
</g>
<!-- Eweka -->
<g id="node40" class="node">
<title>Eweka</title>
<polygon fill="#ff0000" stroke="#ff0000" points="505.9378,-1500.5 482.3239,-1521.0013 435.0962,-1521.0013 411.4824,-1500.5 435.0962,-1479.9987 482.3239,-1479.9987 505.9378,-1500.5"/>
<text text-anchor="middle" x="458.7101" y="-1496.3" font-family="Helvetica,sans-Serif" font-size="14.00" fill="#ffffff">Eweka</text>
</g>
<!-- Eweka Internet Services&#45;&#45;Eweka -->
<g id="edge34" class="edge">
<title>Eweka Internet Services--Eweka</title>
<path fill="none" stroke="#000000" d="M313.069,-1465.0192C347.72,-1473.4608 391.3725,-1484.0953 421.8098,-1491.5104"/>
</g>
<!-- Astraweb -->
<g id="node42" class="node">
<title>Astraweb</title>
<polygon fill="#ff0000" stroke="#ff0000" points="496.0531,-1462 421.3671,-1462 421.3671,-1435 496.0531,-1435 496.0531,-1462"/>
<text text-anchor="middle" x="458.7101" y="-1444.3" font-family="Helvetica,sans-Serif" font-size="14.00" fill="#ffffff">Astraweb</text>
</g>
<!-- HW Media&#45;&#45;Astraweb -->
<g id="edge36" class="edge">
<title>HW Media--Astraweb</title>
<path fill="none" stroke="#000000" d="M277.9048,-1372.2156C301.0473,-1387.3104 340.4009,-1411.4279 377.0364,-1426.5 391.1601,-1432.3106 407.2876,-1437.0309 421.4599,-1440.5879"/>
</g>
<!-- Easynews -->
<g id="node43" class="node">
<title>Easynews</title>
<polygon fill="#ff0000" stroke="#ff0000" points="498.5013,-1417 418.9188,-1417 418.9188,-1390 498.5013,-1390 498.5013,-1417"/>
<text text-anchor="middle" x="458.7101" y="-1399.3" font-family="Helvetica,sans-Serif" font-size="14.00" fill="#ffffff">Easynews</text>
</g>
<!-- HW Media&#45;&#45;Easynews -->
<g id="edge37" class="edge">
<title>HW Media--Easynews</title>
<path fill="none" stroke="#000000" d="M298.2782,-1367.6064C333.4037,-1375.4651 383.8484,-1386.7511 418.7545,-1394.5607"/>
</g>
<!-- Newsgroup Ninja -->
<g id="node44" class="node">
<title>Newsgroup Ninja</title>
<polygon fill="#ff0000" stroke="#ff0000" points="519.7732,-1372 397.6469,-1372 397.6469,-1345 519.7732,-1345 519.7732,-1372"/>
<text text-anchor="middle" x="458.7101" y="-1354.3" font-family="Helvetica,sans-Serif" font-size="14.00" fill="#ffffff">Newsgroup Ninja</text>
</g>
<!-- HW Media&#45;&#45;Newsgroup Ninja -->
<g id="edge38" class="edge">
<title>HW Media--Newsgroup Ninja</title>
<path fill="none" stroke="#000000" d="M298.2782,-1358.5C326.746,-1358.5 365.2759,-1358.5 397.4413,-1358.5"/>
</g>
<!-- NewsHosting -->
<g id="node45" class="node">
<title>NewsHosting</title>
<polygon fill="#ff0000" stroke="#ff0000" points="508.1585,-1327 409.2616,-1327 409.2616,-1300 508.1585,-1300 508.1585,-1327"/>
<text text-anchor="middle" x="458.7101" y="-1309.3" font-family="Helvetica,sans-Serif" font-size="14.00" fill="#ffffff">NewsHosting</text>
</g>
<!-- HW Media&#45;&#45;NewsHosting -->
<g id="edge39" class="edge">
<title>HW Media--NewsHosting</title>
<path fill="none" stroke="#000000" d="M298.2782,-1349.3936C330.3044,-1342.2283 375.0657,-1332.2138 409.1729,-1324.583"/>
</g>
<!-- UsenetServer -->
<g id="node46" class="node">
<title>UsenetServer</title>
<polygon fill="#ff0000" stroke="#ff0000" points="509.279,-1282 408.1411,-1282 408.1411,-1255 509.279,-1255 509.279,-1282"/>
<text text-anchor="middle" x="458.7101" y="-1264.3" font-family="Helvetica,sans-Serif" font-size="14.00" fill="#ffffff">UsenetServer</text>
</g>
<!-- HW Media&#45;&#45;UsenetServer -->
<g id="edge40" class="edge">
<title>HW Media--UsenetServer</title>
<path fill="none" stroke="#000000" d="M278.3884,-1344.8141C301.6407,-1330.0108 340.7896,-1306.519 377.0364,-1291.5 386.8349,-1287.44 397.5822,-1283.8444 407.9696,-1280.7731"/>
</g>
<!-- AnarQy\nAlibis\nAnonyNews\nAtlantisNews\nBinary Boy\nBinTube\nBlockNews\nBudgetNews\nFast&#45;Usenet\nFirstload\nForte Agent\nFrugal Usenet\nHitNews\niLoad\nMaximumUsenet\nNewsFusion\nNewsGroup&#45;Binaries\nNewsGroupDownload\nNewsLeecher\nNgroups\nPrepaid&#45;Usenet\nShemes\nSimonNews\nSnelNL\nUncensored Newsfeed\nUsenet&#45;News\nUsenet.nl\nUsenet.se\nUsenet4u\nUsenetAccess\nUseNetNow\nUsenetStorm\nUsenext\nXenNews -->
<g id="node47" class="node">
<title>AnarQy\nAlibis\nAnonyNews\nAtlantisNews\nBinary Boy\nBinTube\nBlockNews\nBudgetNews\nFast-Usenet\nFirstload\nForte Agent\nFrugal Usenet\nHitNews\niLoad\nMaximumUsenet\nNewsFusion\nNewsGroup-Binaries\nNewsGroupDownload\nNewsLeecher\nNgroups\nPrepaid-Usenet\nShemes\nSimonNews\nSnelNL\nUncensored Newsfeed\nUsenet-News\nUsenet.nl\nUsenet.se\nUsenet4u\nUsenetAccess\nUseNetNow\nUsenetStorm\nUsenext\nXenNews</title>
<polygon fill="#ff0000" stroke="#ff0000" points="746.7939,-1615.2 589.6177,-1615.2 589.6177,-1035.8 746.7939,-1035.8 746.7939,-1615.2"/>
<text text-anchor="middle" x="668.2058" y="-1598.5" font-family="Helvetica,sans-Serif" font-size="14.00" fill="#ffffff">AnarQy</text>
<text text-anchor="middle" x="668.2058" y="-1581.7" font-family="Helvetica,sans-Serif" font-size="14.00" fill="#ffffff">Alibis</text>
<text text-anchor="middle" x="668.2058" y="-1564.9" font-family="Helvetica,sans-Serif" font-size="14.00" fill="#ffffff">AnonyNews</text>
<text text-anchor="middle" x="668.2058" y="-1548.1" font-family="Helvetica,sans-Serif" font-size="14.00" fill="#ffffff">AtlantisNews</text>
<text text-anchor="middle" x="668.2058" y="-1531.3" font-family="Helvetica,sans-Serif" font-size="14.00" fill="#ffffff">Binary Boy</text>
<text text-anchor="middle" x="668.2058" y="-1514.5" font-family="Helvetica,sans-Serif" font-size="14.00" fill="#ffffff">BinTube</text>
<text text-anchor="middle" x="668.2058" y="-1497.7" font-family="Helvetica,sans-Serif" font-size="14.00" fill="#ffffff">BlockNews</text>
<text text-anchor="middle" x="668.2058" y="-1480.9" font-family="Helvetica,sans-Serif" font-size="14.00" fill="#ffffff">BudgetNews</text>
<text text-anchor="middle" x="668.2058" y="-1464.1" font-family="Helvetica,sans-Serif" font-size="14.00" fill="#ffffff">Fast-Usenet</text>
<text text-anchor="middle" x="668.2058" y="-1447.3" font-family="Helvetica,sans-Serif" font-size="14.00" fill="#ffffff">Firstload</text>
<text text-anchor="middle" x="668.2058" y="-1430.5" font-family="Helvetica,sans-Serif" font-size="14.00" fill="#ffffff">Forte Agent</text>
<text text-anchor="middle" x="668.2058" y="-1413.7" font-family="Helvetica,sans-Serif" font-size="14.00" fill="#ffffff">Frugal Usenet</text>
<text text-anchor="middle" x="668.2058" y="-1396.9" font-family="Helvetica,sans-Serif" font-size="14.00" fill="#ffffff">HitNews</text>
<text text-anchor="middle" x="668.2058" y="-1380.1" font-family="Helvetica,sans-Serif" font-size="14.00" fill="#ffffff">iLoad</text>
<text text-anchor="middle" x="668.2058" y="-1363.3" font-family="Helvetica,sans-Serif" font-size="14.00" fill="#ffffff">MaximumUsenet</text>
<text text-anchor="middle" x="668.2058" y="-1346.5" font-family="Helvetica,sans-Serif" font-size="14.00" fill="#ffffff">NewsFusion</text>
<text text-anchor="middle" x="668.2058" y="-1329.7" font-family="Helvetica,sans-Serif" font-size="14.00" fill="#ffffff">NewsGroup-Binaries</text>
<text text-anchor="middle" x="668.2058" y="-1312.9" font-family="Helvetica,sans-Serif" font-size="14.00" fill="#ffffff">NewsGroupDownload</text>
<text text-anchor="middle" x="668.2058" y="-1296.1" font-family="Helvetica,sans-Serif" font-size="14.00" fill="#ffffff">NewsLeecher</text>
<text text-anchor="middle" x="668.2058" y="-1279.3" font-family="Helvetica,sans-Serif" font-size="14.00" fill="#ffffff">Ngroups</text>
<text text-anchor="middle" x="668.2058" y="-1262.5" font-family="Helvetica,sans-Serif" font-size="14.00" fill="#ffffff">Prepaid-Usenet</text>
<text text-anchor="middle" x="668.2058" y="-1245.7" font-family="Helvetica,sans-Serif" font-size="14.00" fill="#ffffff">Shemes</text>
<text text-anchor="middle" x="668.2058" y="-1228.9" font-family="Helvetica,sans-Serif" font-size="14.00" fill="#ffffff">SimonNews</text>
<text text-anchor="middle" x="668.2058" y="-1212.1" font-family="Helvetica,sans-Serif" font-size="14.00" fill="#ffffff">SnelNL</text>
<text text-anchor="middle" x="668.2058" y="-1195.3" font-family="Helvetica,sans-Serif" font-size="14.00" fill="#ffffff">Uncensored Newsfeed</text>
<text text-anchor="middle" x="668.2058" y="-1178.5" font-family="Helvetica,sans-Serif" font-size="14.00" fill="#ffffff">Usenet-News</text>
<text text-anchor="middle" x="668.2058" y="-1161.7" font-family="Helvetica,sans-Serif" font-size="14.00" fill="#ffffff">Usenet.nl</text>
<text text-anchor="middle" x="668.2058" y="-1144.9" font-family="Helvetica,sans-Serif" font-size="14.00" fill="#ffffff">Usenet.se</text>
<text text-anchor="middle" x="668.2058" y="-1128.1" font-family="Helvetica,sans-Serif" font-size="14.00" fill="#ffffff">Usenet4u</text>
<text text-anchor="middle" x="668.2058" y="-1111.3" font-family="Helvetica,sans-Serif" font-size="14.00" fill="#ffffff">UsenetAccess</text>
<text text-anchor="middle" x="668.2058" y="-1094.5" font-family="Helvetica,sans-Serif" font-size="14.00" fill="#ffffff">UseNetNow</text>
<text text-anchor="middle" x="668.2058" y="-1077.7" font-family="Helvetica,sans-Serif" font-size="14.00" fill="#ffffff">UsenetStorm</text>
<text text-anchor="middle" x="668.2058" y="-1060.9" font-family="Helvetica,sans-Serif" font-size="14.00" fill="#ffffff">Usenext</text>
<text text-anchor="middle" x="668.2058" y="-1044.1" font-family="Helvetica,sans-Serif" font-size="14.00" fill="#ffffff">XenNews</text>
</g>
<!-- NewsHosting&#45;&#45;AnarQy\nAlibis\nAnonyNews\nAtlantisNews\nBinary Boy\nBinTube\nBlockNews\nBudgetNews\nFast&#45;Usenet\nFirstload\nForte Agent\nFrugal Usenet\nHitNews\niLoad\nMaximumUsenet\nNewsFusion\nNewsGroup&#45;Binaries\nNewsGroupDownload\nNewsLeecher\nNgroups\nPrepaid&#45;Usenet\nShemes\nSimonNews\nSnelNL\nUncensored Newsfeed\nUsenet&#45;News\nUsenet.nl\nUsenet.se\nUsenet4u\nUsenetAccess\nUseNetNow\nUsenetStorm\nUsenext\nXenNews -->
<g id="edge41" class="edge">
<title>NewsHosting--AnarQy\nAlibis\nAnonyNews\nAtlantisNews\nBinary Boy\nBinTube\nBlockNews\nBudgetNews\nFast-Usenet\nFirstload\nForte Agent\nFrugal Usenet\nHitNews\niLoad\nMaximumUsenet\nNewsFusion\nNewsGroup-Binaries\nNewsGroupDownload\nNewsLeecher\nNgroups\nPrepaid-Usenet\nShemes\nSimonNews\nSnelNL\nUncensored Newsfeed\nUsenet-News\nUsenet.nl\nUsenet.se\nUsenet4u\nUsenetAccess\nUseNetNow\nUsenetStorm\nUsenext\nXenNews</title>
<path fill="none" stroke="#000000" d="M508.0923,-1316.3286C532.2861,-1317.7145 562.0099,-1319.4171 589.2517,-1320.9775"/>
</g>
<!-- TweakNews -->
<g id="node49" class="node">
<title>TweakNews</title>
<polygon fill="#ff0000" stroke="#ff0000" points="533.8056,-1205.5 496.2578,-1226.0013 421.1623,-1226.0013 383.6146,-1205.5 421.1623,-1184.9987 496.2578,-1184.9987 533.8056,-1205.5"/>
<text text-anchor="middle" x="458.7101" y="-1201.3" font-family="Helvetica,sans-Serif" font-size="14.00" fill="#ffb700">TweakNews</text>
</g>
<!-- Base IP / HW Media&#45;&#45;TweakNews -->
<g id="edge43" class="edge">
<title>Base IP / HW Media--TweakNews</title>
<path fill="none" stroke="#000000" d="M304.4789,-1161.0252C335.937,-1170.0966 377.3024,-1182.0249 409.2741,-1191.2444"/>
</g>
<!-- PureUsenet -->
<g id="node50" class="node">
<title>PureUsenet</title>
<polygon fill="#ff0000" stroke="#ff0000" points="532.0283,-1147.5 495.3692,-1168.0013 422.0509,-1168.0013 385.3918,-1147.5 422.0509,-1126.9987 495.3692,-1126.9987 532.0283,-1147.5"/>
<text text-anchor="middle" x="458.7101" y="-1143.3" font-family="Helvetica,sans-Serif" font-size="14.00" fill="#ffffff">PureUsenet</text>
</g>
<!-- Base IP / HW Media&#45;&#45;PureUsenet -->
<g id="edge44" class="edge">
<title>Base IP / HW Media--PureUsenet</title>
<path fill="none" stroke="#000000" d="M328.7712,-1147.5C347.0785,-1147.5 366.8093,-1147.5 385.2299,-1147.5"/>
</g>
<!-- SunnyUsenet -->
<g id="node51" class="node">
<title>SunnyUsenet</title>
<polygon fill="#ff0000" stroke="#ff0000" points="540.5578,-1089.5 499.6339,-1110.0013 417.7862,-1110.0013 376.8624,-1089.5 417.7862,-1068.9987 499.6339,-1068.9987 540.5578,-1089.5"/>
<text text-anchor="middle" x="458.7101" y="-1085.3" font-family="Helvetica,sans-Serif" font-size="14.00" fill="#ffffff">SunnyUsenet</text>
</g>
<!-- Base IP / HW Media&#45;&#45;SunnyUsenet -->
<g id="edge45" class="edge">
<title>Base IP / HW Media--SunnyUsenet</title>
<path fill="none" stroke="#000000" d="M304.4789,-1133.9748C335.0083,-1125.1712 374.8688,-1113.6769 406.4186,-1104.579"/>
</g>
<!-- XLned -->
<g id="node52" class="node">
<title>XLned</title>
<polygon fill="#ff0000" stroke="#ff0000" points="504.9205,-1008.5 481.8153,-1029.0013 435.6048,-1029.0013 412.4996,-1008.5 435.6048,-987.9987 481.8153,-987.9987 504.9205,-1008.5"/>
<text text-anchor="middle" x="458.7101" y="-1004.3" font-family="Helvetica,sans-Serif" font-size="14.00" fill="#ffffff">XLned</text>
</g>
<!-- Base IP / HW Media&#45;&#45;XLned -->
<g id="edge46" class="edge">
<title>Base IP / HW Media--XLned</title>
<path fill="none" stroke="#000000" d="M275.5386,-1133.8771C298.6973,-1116.4398 340.3578,-1085.4965 377.0364,-1060.5 394.8162,-1048.383 415.2346,-1035.383 431.2081,-1025.4123"/>
</g>
<!-- 123Usenet\nExtremeUsenet\nMijnUsenet\nUsenet.pro\nUsenetBucket\nVordeligusnet -->
<g id="node53" class="node">
<title>123Usenet\nExtremeUsenet\nMijnUsenet\nUsenet.pro\nUsenetBucket\nVordeligusnet</title>
<polygon fill="#ff0000" stroke="#ff0000" points="759.8503,-929.5 714.028,-1018.17 622.3836,-1018.17 576.5613,-929.5 622.3836,-840.83 714.028,-840.83 759.8503,-929.5"/>
<text text-anchor="middle" x="668.2058" y="-967.3" font-family="Helvetica,sans-Serif" font-size="14.00" fill="#ffffff">123Usenet</text>
<text text-anchor="middle" x="668.2058" y="-950.5" font-family="Helvetica,sans-Serif" font-size="14.00" fill="#ffffff">ExtremeUsenet</text>
<text text-anchor="middle" x="668.2058" y="-933.7" font-family="Helvetica,sans-Serif" font-size="14.00" fill="#ffffff">MijnUsenet</text>
<text text-anchor="middle" x="668.2058" y="-916.9" font-family="Helvetica,sans-Serif" font-size="14.00" fill="#ffffff">Usenet.pro</text>
<text text-anchor="middle" x="668.2058" y="-900.1" font-family="Helvetica,sans-Serif" font-size="14.00" fill="#ffffff">UsenetBucket</text>
<text text-anchor="middle" x="668.2058" y="-883.3" font-family="Helvetica,sans-Serif" font-size="14.00" fill="#ffffff">Vordeligusnet</text>
</g>
<!-- XLned&#45;&#45;123Usenet\nExtremeUsenet\nMijnUsenet\nUsenet.pro\nUsenetBucket\nVordeligusnet -->
<g id="edge47" class="edge">
<title>XLned--123Usenet\nExtremeUsenet\nMijnUsenet\nUsenet.pro\nUsenetBucket\nVordeligusnet</title>
<path fill="none" stroke="#000000" d="M491.4438,-996.1563C518.1422,-986.0884 556.9384,-971.4585 591.3869,-958.4681"/>
</g>
</g>
</svg>
